<?xml version="1.0" encoding="utf-8"?>
<!-- Generator: Adobe Illustrator 25.4.1, SVG Export Plug-In . SVG Version: 6.00 Build 0)  -->
<svg version="1.1" id="Calque_1" xmlns="http://www.w3.org/2000/svg" xmlns:xlink="http://www.w3.org/1999/xlink" x="0px" y="0px"
	 viewBox="0 0 24 24" style="enable-background:new 0 0 24 24;" xml:space="preserve">
<style type="text/css">
	.st0{fill:#FFFFFF;}
</style>
<g>
	<path class="st0" d="M10.3,11.7c-1.4,0-2.9-0.1-3.9-1.3C5.6,9.5,5.3,8.1,5.6,6C6,3.2,7.7,1.5,10.3,1.5S14.6,3.2,15,6
		c0.3,2,0,3.5-0.8,4.4C13.2,11.6,11.6,11.7,10.3,11.7z M10.3,3c-2.4,0-3,2-3.2,3.2C6.9,7.8,7,8.9,7.5,9.5c0.5,0.5,1.3,0.8,2.7,0.8
		c1.5,0,2.3-0.2,2.7-0.8c0.5-0.6,0.7-1.7,0.4-3.2C13.3,5,12.7,3,10.3,3z M12.3,22H4.1c-0.7,0-1.3-0.3-1.8-0.8
		c-0.4-0.5-0.6-1.3-0.4-2c0.9-3.5,4.3-6,8.3-6c0.4,0,0.8,0.3,0.8,0.8c0,0.4-0.3,0.8-0.8,0.8c-3.3,0-6.2,2-6.9,4.9
		c-0.1,0.2,0,0.5,0.1,0.7c0.1,0.2,0.3,0.2,0.6,0.2h8.2c0.4,0,0.8,0.3,0.8,0.8C13,21.7,12.7,22,12.3,22z M21.4,11.1l-4.2,8.5
		c0,0,0,0,0,0.1c0,0.1-0.1,0.1-0.1,0.1c0,0-0.1,0.1-0.1,0.1h0c-0.1,0-0.1,0.1-0.2,0.1s-0.1,0-0.2,0c0,0-0.1,0-0.2,0
		c-0.1,0-0.1,0-0.2-0.1c-0.1,0-0.1-0.1-0.2-0.1c0,0,0,0,0,0l-3.1-3.3c-0.3-0.3-0.3-0.8,0-1.1c0.3-0.3,0.8-0.3,1.1,0l2.3,2.5l3.7-7.5
		c0.2-0.4,0.6-0.5,1-0.3C21.5,10.3,21.6,10.8,21.4,11.1z"/>
	<path class="st0" d="M17,19.9c0,0,0.1-0.1,0.1-0.1c0,0,0,0,0,0C17,19.9,17,19.9,17,19.9z"/>
</g>
</svg>
