<?xml version="1.0" encoding="utf-8"?>
<!-- Generator: Adobe Illustrator 25.4.1, SVG Export Plug-In . SVG Version: 6.00 Build 0)  -->
<svg version="1.1" id="Calque_1" xmlns="http://www.w3.org/2000/svg" xmlns:xlink="http://www.w3.org/1999/xlink" x="0px" y="0px"
	 viewBox="0 0 24 24" style="enable-background:new 0 0 24 24;" xml:space="preserve">
<style type="text/css">
	.st0{fill:#FFFFFF;}
</style>
<g>
	<path class="st0" d="M16,7.3c-0.5,0-0.8,0.3-0.9,0.7l0,0.1c0,0-1.1-1.4-3.3-1.4c-2.9,0-4.9,2.4-4.9,5.7c0,2.5,1.8,4.5,3.9,4.5
		c2.3,0,3.6-1.5,3.6-1.5s0.6,1.8,3.5,1.8c0.5,0,4.8-0.3,4.8-5.2c0-5.9-4.8-10.7-10.7-10.7C6.1,1.3,1.3,6.1,1.3,12
		c0,5.9,4.8,10.7,10.7,10.7c2.2,0,4-0.5,5.8-1.8c0.2-0.1,0.3-0.3,0.3-0.5s0-0.4-0.1-0.6c-0.2-0.3-0.7-0.4-1-0.2
		c-1.5,1-3.1,1.5-5,1.5c-5.1,0-9.2-4.1-9.2-9.2S6.9,2.8,12,2.8s9.2,4.2,9.2,9.2c0,2.9-1.8,3.9-3.2,3.9c-0.5,0-2.2-0.2-1.9-2.1
		c0,0,0.9-5.4,0.9-5.5C17,7.7,16.6,7.3,16,7.3L16,7.3z M13.8,13.8c-0.6,0.8-1.4,1.3-2.2,1.3l-0.1,0c-1.5,0-2.5-1.1-2.6-2.8
		c-0.1-2.1,1.4-4,3.1-4l0.1,0c1.4,0,2.4,1.1,2.5,2.7C14.6,12,14.4,13,13.8,13.8L13.8,13.8z"/>
</g>
</svg>
