<?xml version="1.0" encoding="utf-8"?>
<!-- Generator: Adobe Illustrator 25.4.1, SVG Export Plug-In . SVG Version: 6.00 Build 0)  -->
<svg version="1.1" id="Calque_1" xmlns="http://www.w3.org/2000/svg" xmlns:xlink="http://www.w3.org/1999/xlink" x="0px" y="0px"
	 viewBox="0 0 24 24" style="enable-background:new 0 0 24 24;" xml:space="preserve">
<style type="text/css">
	.st0{fill:#FFFFFF;}
</style>
<g>
	<path class="st0" d="M12,2C6.5,2,2,6.5,2,12s4.5,10,10,10s10-4.5,10-10S17.5,2,12,2z M20.5,11.4c-0.2,0.2-0.5,0.4-0.6,0.5
		c-0.7-1.3-1-1.8-1.3-2c-0.2-0.1-0.4-0.2-0.8-0.4c-0.4-0.1-1.5-0.6-1.6-0.9c-0.1-0.2,0.1-0.6,0.2-0.8c0.1-0.2,0.2-0.3,0.2-0.5
		c0.1-0.6-0.3-1.1-0.7-1.6c-0.1-0.1-0.2-0.2-0.2-0.3C16,5.4,16.5,5.3,17,5.2C19,6.6,20.3,8.9,20.5,11.4L20.5,11.4z M10.7,3.6
		c0.1,0.2,0.1,0.5,0.2,0.7c-0.3,0.2-0.7,0.4-1,0.5C9.6,4.9,9.4,5.1,9.2,5.2C8.9,5.3,8.7,5.4,8.6,5.5C8.2,5.7,8,5.8,7.7,6.1
		C7.7,6.1,7.5,6.3,6.7,8L4.9,7.3C6.2,5.4,8.3,4,10.7,3.6L10.7,3.6z M12,20.5c-4.7,0-8.5-3.8-8.5-8.5c0-1.2,0.2-2.3,0.7-3.4
		c0.5,0.2,1.7,0.7,2.8,1C6.8,10,6.7,10.5,6.7,11c0,0.9,0.5,1.7,0.6,1.8c0.1,0.1,0.1,0.1,0.2,0.2c0.3,0.2,0.7,0.5,0.8,0.6
		c0.1,0.3,0.2,1.3,0.2,1.8c0.1,1.3,0.2,1.5,0.2,1.7c0,0,0.5,1.2,1.3,1.2c0.6,0,0.7-0.2,1.9-2.7c0.2-0.5,0.4-0.9,0.5-1.1
		c0.1-0.1,0.6-0.6,0.9-0.8c0.6-0.4,0.8-1.8,0.4-2.7c-0.3-0.8-1.9-2.1-2.5-2.2c-0.2,0-0.4,0-1-0.1c-0.5,0-1.2,0-1.5-0.1
		c-0.1,0-0.3-0.1-0.6-0.2c0.3-0.7,0.6-1.3,0.7-1.4C8.9,7,9,7,9.2,6.9c0.2-0.1,0.4-0.2,0.7-0.3c0.2-0.1,0.5-0.2,0.7-0.4
		c1.2-0.6,1.5-0.8,1.7-1.1c0.1-0.2,0.3-0.4,0-1.5c1,0,2,0.2,3,0.6c-0.9,0.3-1,0.6-1.1,0.8c-0.4,0.8,0.3,1.5,0.7,1.9
		c0.1,0.1,0.2,0.3,0.3,0.4l0,0c-0.2,0.5-0.7,1.3-0.2,2.2c0.4,0.7,1.4,1.1,2.4,1.5c0.1,0.1,0.2,0.1,0.3,0.1c0.2,0.2,0.5,0.8,1,1.7
		l0.2,0.3c0.1,0.1,0.3,0.5,0.8,0.5c0.2,0,0.4,0,0.6-0.1c0,0,0.1,0,0.2-0.1C19.7,17.4,16.2,20.5,12,20.5z M8.2,11.1
		c0-0.3,0.1-0.6,0.2-0.9l0,0c0.4,0.1,1,0.1,1.8,0.1c0.3,0,0.6,0,0.6,0c0.3,0.1,1.4,1,1.5,1.3c0.1,0.3,0.1,0.8,0,1
		c-0.2,0.2-0.8,0.7-1.1,1.1c-0.1,0.1-0.2,0.4-0.6,1.3c-0.1,0.3-0.3,0.7-0.5,1c0-0.2-0.1-0.5-0.1-0.7c-0.2-2-0.3-2.2-0.4-2.4
		c-0.1-0.1-0.2-0.3-1.1-1C8.3,11.6,8.2,11.3,8.2,11.1L8.2,11.1z"/>
</g>
</svg>
