<svg id="Calque_1" data-name="Calque 1" xmlns="http://www.w3.org/2000/svg" viewBox="0 0 43.29 43.3"><defs><style>.cls-1{opacity:0.3;}.cls-2{fill:#fff;}.cls-3{fill:#1d9bf0;}.cls-4{fill:#1a8cd8;}</style></defs><g class="cls-1"><path class="cls-2" d="M25.35,5.85A19.15,19.15,0,1,0,44.5,25,19.14,19.14,0,0,0,25.35,5.85Zm0,35.8A16.65,16.65,0,1,1,42,25,16.66,16.66,0,0,1,25.35,41.65Z" transform="translate(-3.71 -3.35)"/><path class="cls-3" d="M25.35,3.35A21.65,21.65,0,1,0,47,25,21.67,21.67,0,0,0,25.35,3.35Zm0,38.3A16.65,16.65,0,1,1,42,25,16.66,16.66,0,0,1,25.35,41.65Z" transform="translate(-3.71 -3.35)"/></g><path class="cls-4" d="M47,25A21.67,21.67,0,0,1,25.35,46.65v-5A16.67,16.67,0,0,0,42,25Z" transform="translate(-3.71 -3.35)"/></svg>